<svg width="10" height="12" viewBox="0 0 10 12" fill="none" xmlns="http://www.w3.org/2000/svg">
<path d="M6.69953 4.10797C7.55167 3.30726 7.941 2.27882 8.10996 1.64217C8.20546 1.28467 8.14914 0.248884 7.09377 0.0358506C6.5722 -0.0694418 5.85719 0.0652345 4.98792 0.334587C4.70388 0.422739 4.40514 0.422739 4.12109 0.334587C3.24937 0.0652345 2.53681 -0.0596471 2.01525 0.0358506C1.01375 0.217051 0.903556 1.28467 0.999053 1.64217C1.16801 2.27882 1.55735 3.30481 2.40948 4.10552C0.996604 4.70544 0 6.15015 0 7.83973V11.4956C0 11.76 0.203239 12 0.482386 12H8.59969C8.87884 12 9.08208 11.7625 9.10657 11.4956V7.83973C9.10901 6.15015 8.11241 4.70544 6.69953 4.10797ZM1.95893 1.36302C1.93444 1.27242 1.95648 1.08388 2.14258 1.06919C2.40948 1.0496 2.9188 1.0496 3.83705 1.33364C4.30719 1.47811 4.80182 1.47811 5.27196 1.33364C6.19021 1.0496 6.69953 1.03735 6.96644 1.06919C7.22355 1.09857 7.17457 1.27242 7.15009 1.36302C6.97378 2.02171 6.50854 3.20197 5.36012 3.81413C5.32339 3.81413 5.2891 3.81168 5.25238 3.81168H3.85664C3.81991 3.81168 3.78563 3.81168 3.7489 3.81413C2.60048 3.20197 2.13523 2.02171 1.95893 1.36302ZM8.11976 10.9936H0.989259V7.83973C0.989259 6.19668 2.25766 4.84502 3.85664 4.84502H5.25238C6.82441 4.84502 8.11976 6.16974 8.11976 7.83973V10.9936Z" fill="#B2B2B2" fill-opacity="0.7"/>
<path d="M4.55453 7.62698C4.34885 7.62698 4.17989 7.45802 4.17989 7.25233C4.17989 7.04664 4.34885 6.87769 4.55453 6.87769C4.65983 6.87769 4.75533 6.91931 4.82878 6.99522C4.97326 7.14949 5.21567 7.15683 5.36994 7.01236C5.5242 6.86789 5.53155 6.62547 5.38708 6.47121C5.2622 6.33898 5.10793 6.23859 4.93897 6.17982V6.02555C4.93897 5.81252 4.76757 5.64111 4.55453 5.64111C4.3415 5.64111 4.1701 5.81252 4.1701 6.02555V6.17737C3.72934 6.33653 3.41101 6.7577 3.41101 7.25233C3.41101 7.88164 3.92278 8.39586 4.55453 8.39586C4.76022 8.39586 4.92918 8.56481 4.92918 8.7705C4.92918 8.97619 4.76022 9.14515 4.55453 9.14515C4.44924 9.14515 4.35374 9.10352 4.28028 9.02761C4.13581 8.87334 3.8934 8.866 3.73913 9.01047C3.58487 9.15494 3.57752 9.39736 3.72199 9.55162C3.84687 9.68385 4.00114 9.78425 4.1701 9.84301V9.99728C4.1701 10.2103 4.3415 10.3817 4.55453 10.3817C4.76757 10.3817 4.93897 10.2103 4.93897 9.99728V9.84546C5.37973 9.6863 5.69806 9.26513 5.69806 8.7705C5.69806 8.13875 5.18384 7.62698 4.55453 7.62698Z" fill="#B2B2B2" fill-opacity="0.7"/>
</svg>
