<svg width="10" height="10" viewBox="0 0 10 10" fill="none" xmlns="http://www.w3.org/2000/svg">
<path fill-rule="evenodd" clip-rule="evenodd" d="M5 0C7.76123 0 10 2.23877 10 5C10 7.76123 7.76123 10 5 10C2.23877 10 0 7.76123 0 5C0 2.23877 2.23877 0 5 0ZM4.30664 2.48372H4.91781C5.0293 2.48372 5.12126 2.57568 5.12126 2.68717V5.04232H7.27051C7.38281 5.04232 7.47396 5.13428 7.47396 5.24577V5.85693C7.47396 5.96924 7.382 6.06038 7.27051 6.06038H4.10238V2.68717C4.10238 2.57487 4.19434 2.48372 4.30664 2.48372ZM5 1.13525C7.1346 1.13525 8.86475 2.8654 8.86475 5C8.86475 7.1346 7.1346 8.86475 5 8.86475C2.8654 8.86475 1.13525 7.1346 1.13525 5C1.13525 2.86621 2.8654 1.13525 5 1.13525Z" fill="#B2B2B2" fill-opacity="0.7"/>
</svg>
