<svg width="11" height="11" viewBox="0 0 11 11" fill="none" xmlns="http://www.w3.org/2000/svg">
<path d="M10.2778 9.51389V4.31945C10.2778 4.12707 10.1872 3.94597 10.0333 3.83056L5.75556 0.622224C5.53824 0.459259 5.23953 0.459259 5.02222 0.622224L0.744445 3.83056C0.590561 3.94597 0.5 4.12707 0.5 4.31945V9.51389C0.5 9.85141 0.773607 10.125 1.11111 10.125H3.55556C3.89306 10.125 4.16667 9.85141 4.16667 9.51389V7.68056C4.16667 7.34304 4.44026 7.06945 4.77778 7.06945H6C6.33752 7.06945 6.61111 7.34304 6.61111 7.68056V9.51389C6.61111 9.85141 6.88471 10.125 7.22222 10.125H9.66667C10.0042 10.125 10.2778 9.85141 10.2778 9.51389Z" stroke="#B2B2B2" stroke-linecap="round" stroke-linejoin="round"/>
</svg>
