<svg width="12" height="12" viewBox="0 0 12 12" fill="none" xmlns="http://www.w3.org/2000/svg">
<path d="M6 0C2.69156 0 0 2.69156 0 6C0 9.30844 2.69156 12 6 12C9.30844 12 12 9.30844 12 6C12 2.69156 9.30844 0 6 0ZM4.40241 0.7166C3.93166 1.17412 3.53264 1.8309 3.23758 2.6287C2.89728 2.43106 2.57753 2.19538 2.28135 1.92431C2.88217 1.37565 3.60448 0.958351 4.40241 0.7166ZM1.9371 2.26792C2.28864 2.59208 2.67269 2.86911 3.08134 3.09738C2.84439 3.88791 2.70336 4.7912 2.6832 5.76H0.486086C0.543879 4.41653 1.08369 3.19622 1.9371 2.26792ZM0.486086 6.24H2.6832C2.70323 7.20334 2.84266 8.10212 3.07722 8.88948C2.66709 9.11902 2.28186 9.3978 1.9294 9.72396C1.08035 8.79666 0.543708 7.5795 0.486086 6.24ZM2.27306 10.0678C2.5702 9.7947 2.89131 9.55746 3.23307 9.35853C3.5286 10.162 3.92917 10.8234 4.40241 11.2834C3.60072 11.0405 2.87557 10.6203 2.27306 10.0678ZM5.76 11.4979C4.90893 11.3517 4.15162 10.4392 3.67689 9.12724C4.32502 8.82584 5.02895 8.65363 5.76 8.62243V11.4979ZM5.76 8.13657C4.9774 8.16716 4.22199 8.34738 3.5256 8.66292C3.31324 7.93457 3.18349 7.10987 3.16321 6.24H5.76V8.13657ZM5.76 5.76H3.16321C3.18362 4.88467 3.31497 4.05512 3.52969 3.32343C4.22496 3.63782 4.97893 3.81744 5.76 3.84798V5.76ZM5.76 3.36211C5.03078 3.33096 4.32853 3.15961 3.68177 2.85962C4.15679 1.55471 4.9118 0.64779 5.76 0.502125V3.36211ZM11.5139 5.76H9.3168C9.29664 4.79117 9.15559 3.88783 8.91864 3.09728C9.32731 2.86903 9.71129 2.59191 10.0628 2.2678C10.9163 3.19612 11.4561 4.41648 11.5139 5.76ZM9.71877 1.92443C9.42259 2.19543 9.10272 2.43097 8.76239 2.62857C8.46731 1.83083 8.06832 1.17409 7.59759 0.716576C8.39557 0.958351 9.11793 1.37572 9.71877 1.92443ZM6.24 0.502125C7.08817 0.647765 7.84319 1.55466 8.31821 2.85953C7.67134 3.15953 6.96905 3.33101 6.24 3.36214V0.502125ZM6.24 3.84798C7.02087 3.81744 7.77494 3.63782 8.47031 3.32338C8.68503 4.0551 8.81638 4.88465 8.83679 5.75998H6.24V3.84798ZM6.24 6.24H8.83679C8.81651 7.10989 8.68673 7.93459 8.4744 8.66294C7.77791 8.34736 7.02241 8.16713 6.24 8.13654V6.24ZM6.24 11.4979V8.62238C6.97088 8.65361 7.67485 8.82589 8.32308 9.12731C7.84835 10.4393 7.09105 11.3517 6.24 11.4979ZM7.59759 11.2834C8.0708 10.8235 8.47136 10.1621 8.7669 9.35863C9.10871 9.55753 9.42993 9.79462 9.72708 10.0676C9.12456 10.6202 8.39935 11.0405 7.59759 11.2834ZM10.0705 9.72408C9.71806 9.39795 9.33289 9.1191 8.92276 8.88958C9.15732 8.1022 9.29677 7.20339 9.3168 6.24H11.5139C11.4563 7.57955 10.9196 8.79679 10.0705 9.72408Z" fill="#B2B2B2" fill-opacity="0.7"/>
</svg>
