<svg width="12" height="12" viewBox="0 0 12 12" fill="none" xmlns="http://www.w3.org/2000/svg">
<g clip-path="url(#clip0_11_4761)">
<path fill-rule="evenodd" clip-rule="evenodd" d="M12.1016 -0.289069H12.238C12.4964 -0.289069 12.7058 -0.0736744 12.7058 0.191991V11.4438C12.7058 11.7095 12.4964 11.9249 12.2381 11.9249H12.1017C12.0747 11.9249 12.0386 11.937 12.0034 11.9488C11.9403 11.97 11.88 11.9903 11.88 11.9381C11.88 11.8569 11.6785 11.9381 11.6785 11.9381H11.1315H10.3685C10.2622 11.9381 9.99989 11.9249 9.99989 11.9249C9.99989 11.9249 9.86723 11.8418 9.86723 11.9249C9.86723 11.9777 9.84075 11.9687 9.80072 11.9552C9.77776 11.9474 9.75034 11.9381 9.7209 11.9381H2.36137C2.32945 11.9381 2.2999 11.9511 2.27584 11.9617C2.23902 11.9778 2.21504 11.9884 2.21504 11.9381H2.09075C2.09075 11.9009 2.08541 11.9072 2.07372 11.9209C2.05933 11.9378 2.03534 11.966 1.99989 11.9381C1.95398 11.9021 1.94069 11.9082 1.91628 11.9195C1.89897 11.9275 1.87608 11.9381 1.83202 11.9381H0.622361H0.320044H0.132896C0.132896 12.027 0.104738 12.0036 0.0658108 11.9711C0.0403667 11.9499 0.0103217 11.9249 -0.0194679 11.9249H-0.155852C-0.414154 11.9249 -0.623535 11.7095 -0.623535 11.4438V0.191991C-0.623535 -0.0736744 -0.414154 -0.289069 -0.155852 -0.289069H-0.0191811H0.117203H0.467475H0.71292H1.5302H1.98154H2.29956H2.43609H2.57247H9.50999H9.64635L9.84755 -0.289089L9.99989 -0.289069L10.3944 -0.289089L11.3906 -0.289069H11.8513H12.1016ZM2.36137 11.2478C2.61964 11.2478 2.82343 11.0324 2.82343 10.7668V9.50284C2.82343 9.23717 2.55784 9.00287 2.29956 9.00287H1.0101C0.751819 9.00287 0.467475 9.29356 0.467475 9.55922V10.7668C0.467475 11.0324 0.751819 11.2478 1.0101 11.2478H2.36137ZM2.29956 5.86561C2.55784 5.86561 2.82343 5.65022 2.82343 5.38455V4.10173C2.82343 3.83604 2.55784 3.62066 2.29956 3.62066L1.0101 3.6172C0.751819 3.6172 0.467475 3.89732 0.467475 4.16299V5.38455C0.467475 5.65022 0.751819 5.86561 1.0101 5.86561H2.29956ZM2.33198 3.16785C2.59025 3.16785 2.85584 2.95245 2.85584 2.68679V1.40394C2.85584 1.13827 2.59025 0.922875 2.33198 0.922875H1.04251C0.784237 0.922875 0.499893 1.1592 0.499893 1.42487V2.68679C0.499893 2.95245 0.784237 3.16785 1.04251 3.16785H2.33198ZM9.02916 11.2478V10.2376V6.87698V5.97952V4.65176V1.42487V0.890191H5.9999H3.05302V1.42487V4.65176V5.97952V6.87698V10.2376V11.2478H6.0411H9.02916ZM2.36137 8.5656C2.61964 8.5656 2.82343 8.3502 2.82343 8.08454V6.8206C2.82343 6.55493 2.55784 6.32062 2.29956 6.32062H1.0101C0.751819 6.32062 0.467475 6.61131 0.467475 6.87698V8.08454C0.467475 8.3502 0.751819 8.5656 1.0101 8.5656H2.36137ZM11.6785 2.68679C11.6785 2.95245 11.4129 3.16785 11.1546 3.16785H9.86518C9.6069 3.16785 9.32255 2.95245 9.32255 2.68679V1.42487C9.32255 1.1592 9.6069 0.922875 9.86518 0.922875H11.1546C11.4129 0.922875 11.6785 1.13827 11.6785 1.40394V2.68679ZM11.1222 5.86561C11.3805 5.86561 11.6461 5.65022 11.6461 5.38455V4.10173C11.6461 3.83604 11.3805 3.62066 11.1222 3.62066L9.83276 3.6172C9.57448 3.6172 9.29014 3.89732 9.29014 4.16299V5.38455C9.29014 5.65022 9.57448 5.86561 9.83276 5.86561H11.1222ZM11.6461 8.08454C11.6461 8.3502 11.4423 8.5656 11.184 8.5656H9.83276C9.57448 8.5656 9.29014 8.3502 9.29014 8.08454V6.87698C9.29014 6.61131 9.57448 6.32062 9.83276 6.32062H11.1222C11.3805 6.32062 11.6461 6.55493 11.6461 6.8206V8.08454ZM11.184 11.2478C11.4423 11.2478 11.6461 11.0324 11.6461 10.7668V9.50284C11.6461 9.23717 11.3805 9.00287 11.1222 9.00287H9.83276C9.57448 9.00287 9.29014 9.29356 9.29014 9.55922V10.7668C9.29014 11.0324 9.57448 11.2478 9.83276 11.2478H11.184Z" fill="white"/>
<path d="M12.238 -0.289069C12.238 -0.289069 12.177 -0.289069 12.1016 -0.289069M11.1315 11.9381C11.3897 11.9381 11.6785 11.9381 11.6785 11.9381C11.6785 11.9381 11.88 11.8569 11.88 11.9381C11.88 11.9903 11.9403 11.97 12.0034 11.9488C12.0386 11.937 12.0747 11.9249 12.1017 11.9249H12.2381C12.4964 11.9249 12.7058 11.7095 12.7058 11.4438V0.191991C12.7058 -0.0736744 12.4964 -0.289069 12.238 -0.289069M12.238 -0.289069H12.1016M12.1016 -0.289069C12.0263 -0.289069 12.1016 -0.370353 12.1016 -0.289069ZM12.1016 -0.289069H11.8513M11.8513 -0.289069C11.8513 -0.289069 11.6489 -0.289069 11.3906 -0.289069M9.99989 -0.289069C9.99989 -0.289069 10.1361 -0.289089 10.3944 -0.289089L11.3906 -0.289069H11.8513M9.64635 -0.289069L9.84755 -0.289089L9.99989 -0.289069L10.3944 -0.289089M9.84755 -0.289089C9.84755 -0.289089 9.72171 -0.289069 9.64635 -0.289069M9.64635 -0.289069H9.50999H2.57247M2.57247 -0.289069C2.57247 -0.289069 2.51145 -0.289069 2.43609 -0.289069M2.57247 -0.289069H2.43609M2.43609 -0.289069C2.36072 -0.289069 2.29956 -0.289069 2.29956 -0.289069M2.43609 -0.289069H2.29956M2.29956 -0.289069H1.98154M1.98154 -0.289069C1.98154 -0.289069 1.78848 -0.289069 1.5302 -0.289069M1.98154 -0.289069H1.5302M1.5302 -0.289069H0.71292M0.71292 -0.289069C0.454642 -0.289069 0.467475 -0.289069 0.467475 -0.289069M0.71292 -0.289069H0.467475M0.467475 -0.289069H0.117203M0.117203 -0.289069C0.117203 -0.289069 0.0561839 -0.289069 -0.0191811 -0.289069M0.117203 -0.289069H-0.0191811M-0.0191811 -0.289069H-0.155852C-0.414154 -0.289069 -0.623535 -0.0736744 -0.623535 0.191991V11.4438C-0.623535 11.7095 -0.414154 11.9249 -0.155852 11.9249M-0.155852 11.9249C-0.155852 11.9249 -0.0948329 11.9249 -0.0194679 11.9249M-0.155852 11.9249H-0.0194679M-0.0194679 11.9249C0.0103217 11.9249 0.0403667 11.9499 0.0658108 11.9711C0.104738 12.0036 0.132896 12.027 0.132896 11.9381H0.320044M0.320044 11.9381C0.320044 11.9381 0.364083 11.9381 0.622361 11.9381M0.320044 11.9381H0.622361M0.622361 11.9381H1.83202C1.87608 11.9381 1.89897 11.9275 1.91628 11.9195C1.94069 11.9082 1.95398 11.9021 1.99989 11.9381C2.03534 11.966 2.05933 11.9378 2.07372 11.9209C2.08541 11.9072 2.09075 11.9009 2.09075 11.9381H2.21504C2.21504 11.9884 2.23902 11.9778 2.27584 11.9617C2.2999 11.9511 2.32945 11.9381 2.36137 11.9381H9.7209C9.75034 11.9381 9.77776 11.9474 9.80072 11.9552C9.84075 11.9687 9.86723 11.9777 9.86723 11.9249C9.86723 11.8418 9.99989 11.9249 9.99989 11.9249C9.99989 11.9249 10.2622 11.9381 10.3685 11.9381H11.1315M11.1315 11.9381H11.6785M9.02916 10.2376C9.02916 10.3206 9.02916 11.2478 9.02916 11.2478M9.02916 10.2376V6.87698V5.97952M3.05302 10.2376C3.05302 10.3206 3.05302 11.2478 3.05302 11.2478H6.0411H9.02916V10.2376M3.05302 11.2478V10.2376M3.05302 10.2376V6.87698M3.05302 6.87698C3.05302 6.7939 3.05302 5.97952 3.05302 5.97952M3.05302 6.87698V5.97952M3.05302 5.97952C3.05302 6.65899 3.05302 4.73484 3.05302 4.65176M3.05302 5.97952H6.0411H9.02916M3.05302 5.97952V4.65176M9.02916 5.97952C9.02916 5.97952 9.02916 4.73484 9.02916 4.65176M9.02916 5.97952V4.65176M9.02916 4.65176V1.42487M3.05302 4.65176V1.42487M3.05302 1.42487C3.05302 1.34179 3.05302 0.890191 3.05302 0.890191M9.02916 1.42487C9.02916 1.38778 9.02916 0.890191 9.02916 0.890191H5.9999H3.05302V1.42487M9.02916 0.890191V1.42487M2.82343 10.7668C2.82343 11.0324 2.61964 11.2478 2.36137 11.2478H1.0101C0.751819 11.2478 0.467475 11.0324 0.467475 10.7668V9.55922C0.467475 9.29356 0.751819 9.00287 1.0101 9.00287H2.29956C2.55784 9.00287 2.82343 9.23717 2.82343 9.50284V10.7668ZM2.82343 5.38455C2.82343 5.65022 2.55784 5.86561 2.29956 5.86561H1.0101C0.751819 5.86561 0.467475 5.65022 0.467475 5.38455V4.16299C0.467475 3.89732 0.751819 3.6172 1.0101 3.6172L2.29956 3.62066C2.55784 3.62066 2.82343 3.83604 2.82343 4.10173V5.38455ZM2.85584 2.68679C2.85584 2.95245 2.59025 3.16785 2.33198 3.16785H1.04251C0.784237 3.16785 0.499893 2.95245 0.499893 2.68679V1.42487C0.499893 1.1592 0.784237 0.922875 1.04251 0.922875H2.33198C2.59025 0.922875 2.85584 1.13827 2.85584 1.40394V2.68679ZM2.82343 8.08454C2.82343 8.3502 2.61964 8.5656 2.36137 8.5656H1.0101C0.751819 8.5656 0.467475 8.3502 0.467475 8.08454V6.87698C0.467475 6.61131 0.751819 6.32062 1.0101 6.32062H2.29956C2.55784 6.32062 2.82343 6.55493 2.82343 6.8206V8.08454ZM11.6461 10.7668C11.6461 11.0324 11.4423 11.2478 11.184 11.2478H9.83276C9.57448 11.2478 9.29014 11.0324 9.29014 10.7668V9.55922C9.29014 9.29356 9.57448 9.00287 9.83276 9.00287H11.1222C11.3805 9.00287 11.6461 9.23717 11.6461 9.50284V10.7668ZM11.6461 5.38455C11.6461 5.65022 11.3805 5.86561 11.1222 5.86561H9.83276C9.57448 5.86561 9.29014 5.65022 9.29014 5.38455V4.16299C9.29014 3.89732 9.57448 3.6172 9.83276 3.6172L11.1222 3.62066C11.3805 3.62066 11.6461 3.83604 11.6461 4.10173V5.38455ZM11.6785 2.68679C11.6785 2.95245 11.4129 3.16785 11.1546 3.16785H9.86518C9.6069 3.16785 9.32255 2.95245 9.32255 2.68679V1.42487C9.32255 1.1592 9.6069 0.922875 9.86518 0.922875H11.1546C11.4129 0.922875 11.6785 1.13827 11.6785 1.40394V2.68679ZM11.6461 8.08454C11.6461 8.3502 11.4423 8.5656 11.184 8.5656H9.83276C9.57448 8.5656 9.29014 8.3502 9.29014 8.08454V6.87698C9.29014 6.61131 9.57448 6.32062 9.83276 6.32062H11.1222C11.3805 6.32062 11.6461 6.55493 11.6461 6.8206V8.08454Z" stroke="white"/>
</g>
<defs>
<clipPath id="clip0_11_4761">
<rect width="12" height="12" rx="2" fill="white"/>
</clipPath>
</defs>
</svg>
