<svg width="13" height="13" viewBox="0 0 13 13" fill="none" xmlns="http://www.w3.org/2000/svg">
<path fill-rule="evenodd" clip-rule="evenodd" d="M11.4561 0.100117H11.5789C11.8115 0.100117 12.0001 0.310442 12 0.569853V11.5568C12 11.8162 11.8115 12.0265 11.579 12.0265H11.4562C11.4319 12.0265 11.3994 12.0384 11.3677 12.0499C11.3109 12.0706 11.2566 12.0904 11.2566 12.0395C11.2566 11.9601 11.0752 12.0395 11.0752 12.0395H10.5827H9.89578C9.80012 12.0395 9.56397 12.0265 9.56397 12.0265C9.56397 12.0265 9.44454 11.9454 9.44454 12.0265C9.44454 12.0781 9.4207 12.0694 9.38466 12.0561C9.36399 12.0485 9.3393 12.0395 9.3128 12.0395H2.68722C2.65848 12.0395 2.63189 12.0521 2.61023 12.0625C2.57707 12.0783 2.55548 12.0886 2.55548 12.0395H2.4436C2.4436 12.0031 2.43878 12.0092 2.42826 12.0226C2.41531 12.0391 2.39371 12.0667 2.3618 12.0395C2.32046 12.0043 2.3085 12.0103 2.28652 12.0213C2.27094 12.0291 2.25033 12.0395 2.21066 12.0395H1.12164H0.849478H0.680993C0.680993 12.1263 0.655643 12.1034 0.620598 12.0717C0.597692 12.051 0.570643 12.0265 0.543824 12.0265H0.421042C0.1885 12.0265 0 11.8162 0 11.5568V0.569853C0 0.310442 0.1885 0.100117 0.421042 0.100117H0.544083H0.666865H0.982206H1.20317H1.93895H2.34527H2.63158H2.75449H2.87727H9.12292H9.24568L9.42682 0.100098L9.56397 0.100117L9.91915 0.100098L10.816 0.100117H11.2307H11.4561ZM2.32561 11.3335C2.55813 11.3335 2.74159 11.1232 2.74159 10.8638V9.6296C2.74159 9.37019 2.50249 9.1414 2.26997 9.1414H1.1091C0.876585 9.1414 0.620598 9.42525 0.620598 9.68466V10.8638C0.620598 11.1232 0.876585 11.3335 1.1091 11.3335H2.32561ZM2.26997 6.078C2.50249 6.078 2.74159 5.86767 2.74159 5.60826V4.35564C2.74159 4.0962 2.50249 3.8859 2.26997 3.8859L1.1091 3.88251C0.876585 3.88251 0.620598 4.15604 0.620598 4.41545V5.60826C0.620598 5.86767 0.876585 6.078 1.1091 6.078H2.26997ZM2.29915 3.44374C2.53168 3.44374 2.77078 3.23342 2.77078 2.97401V1.72135C2.77078 1.46194 2.53168 1.25162 2.29915 1.25162H1.13829C0.90577 1.25162 0.649783 1.48238 0.649783 1.74179V2.97401C0.649783 3.23342 0.90577 3.44374 1.13829 3.44374H2.29915ZM8.69004 11.3654V10.3789V7.09747V5.98602V4.92463V1.77371V1.25162H5.96289H3.30989V1.77371V4.92463V6.35267V7.09747V10.3789V11.3654H5.99998H8.69004ZM2.32561 8.71442C2.55813 8.71442 2.74159 8.5041 2.74159 8.24469V7.0105C2.74159 6.75109 2.50249 6.5223 2.26997 6.5223H1.1091C0.876585 6.5223 0.620598 6.80615 0.620598 7.06556V8.24469C0.620598 8.5041 0.876585 8.71442 1.1091 8.71442H2.32561ZM11.4561 3.00592C11.4561 3.26533 11.217 3.47566 10.9845 3.47566H9.82362C9.5911 3.47566 9.33511 3.26533 9.33511 3.00592V1.75327C9.33511 1.49386 9.5911 1.28353 9.82362 1.28353H10.9845C11.217 1.28353 11.4561 1.49386 11.4561 1.75327V3.00592ZM10.9553 6.10992C11.1878 6.10992 11.4269 5.89959 11.4269 5.64018V4.38755C11.4269 4.12812 11.1878 3.91781 10.9553 3.91781L9.79444 3.91443C9.56192 3.91443 9.30593 4.18796 9.30593 4.44737V5.64018C9.30593 5.89959 9.56192 6.10992 9.79444 6.10992H10.9553ZM11.4269 8.2766C11.4269 8.53601 11.2435 8.74634 11.0109 8.74634H9.79444C9.56192 8.74634 9.30593 8.53601 9.30593 8.2766V7.09747C9.30593 6.83806 9.56192 6.55422 9.79444 6.55422H10.9553C11.1878 6.55422 11.4269 6.78301 11.4269 7.04242V8.2766ZM11.0109 11.3654C11.2435 11.3654 11.4269 11.1551 11.4269 10.8957V9.66152C11.4269 9.40211 11.1878 9.17332 10.9553 9.17332H9.79444C9.56192 9.17332 9.30593 9.45716 9.30593 9.71657V10.8957C9.30593 11.1551 9.56192 11.3654 9.79444 11.3654H11.0109Z" fill="#B2B2B2"/>
<path d="M11.5789 0.100117C11.5789 0.100117 11.524 0.100117 11.4561 0.100117M10.5827 12.0395C10.8152 12.0395 11.0752 12.0395 11.0752 12.0395C11.0752 12.0395 11.2566 11.9601 11.2566 12.0395C11.2566 12.0904 11.3109 12.0706 11.3677 12.0499C11.3994 12.0384 11.4319 12.0265 11.4562 12.0265H11.579C11.8115 12.0265 12 11.8162 12 11.5568V0.569853C12.0001 0.310442 11.8115 0.100117 11.5789 0.100117M11.5789 0.100117H11.4561M11.4561 0.100117H11.2307M11.2307 0.100117C11.2307 0.100117 11.0485 0.100117 10.816 0.100117M9.56397 0.100117C9.56397 0.100117 9.68663 0.100098 9.91915 0.100098L10.816 0.100117H11.2307M9.24568 0.100117L9.42682 0.100098L9.56397 0.100117L9.91915 0.100098M9.42682 0.100098C9.42682 0.100098 9.31353 0.100117 9.24568 0.100117M9.24568 0.100117H9.12292H2.87727M2.87727 0.100117C2.87727 0.100117 2.82234 0.100117 2.75449 0.100117M2.87727 0.100117H2.75449M2.75449 0.100117C2.68664 0.100117 2.63158 0.100117 2.63158 0.100117M2.75449 0.100117H2.63158M2.63158 0.100117H2.34527M2.34527 0.100117C2.34527 0.100117 2.17147 0.100117 1.93895 0.100117M2.34527 0.100117H1.93895M1.93895 0.100117H1.20317M1.20317 0.100117C0.970652 0.100117 0.982206 0.100117 0.982206 0.100117M1.20317 0.100117H0.982206M0.982206 0.100117H0.666865M0.666865 0.100117C0.666865 0.100117 0.611932 0.100117 0.544083 0.100117M0.666865 0.100117H0.544083M0.544083 0.100117H0.421042C0.1885 0.100117 0 0.310442 0 0.569853V11.5568C0 11.8162 0.1885 12.0265 0.421042 12.0265M0.421042 12.0265C0.421042 12.0265 0.475976 12.0265 0.543824 12.0265M0.421042 12.0265H0.543824M0.543824 12.0265C0.570643 12.0265 0.597692 12.051 0.620598 12.0717C0.655643 12.1034 0.680993 12.1263 0.680993 12.0395H0.849478M0.849478 12.0395C0.849478 12.0395 0.889124 12.0395 1.12164 12.0395M0.849478 12.0395H1.12164M1.12164 12.0395H2.21066C2.25033 12.0395 2.27094 12.0291 2.28652 12.0213C2.3085 12.0103 2.32046 12.0043 2.3618 12.0395C2.39371 12.0667 2.41531 12.0391 2.42826 12.0226C2.43878 12.0092 2.4436 12.0031 2.4436 12.0395H2.55548C2.55548 12.0886 2.57707 12.0783 2.61023 12.0625C2.63189 12.0521 2.65848 12.0395 2.68722 12.0395H9.3128C9.3393 12.0395 9.36399 12.0485 9.38466 12.0561C9.4207 12.0694 9.44454 12.0781 9.44454 12.0265C9.44454 11.9454 9.56397 12.0265 9.56397 12.0265C9.56397 12.0265 9.80012 12.0395 9.89578 12.0395H10.5827M10.5827 12.0395H11.0752M8.69004 10.3789C8.69004 10.4601 8.69004 11.3654 8.69004 11.3654M8.69004 10.3789V7.09747V5.98602M3.30989 10.3789C3.30989 10.4601 3.30989 11.3654 3.30989 11.3654H5.99998H8.69004V10.3789M3.30989 11.3654V10.3789M3.30989 10.3789V7.09747M3.30989 7.09747C3.30989 7.01635 3.30989 6.35267 3.30989 6.35267M3.30989 7.09747V6.35267M3.30989 6.35267C3.30989 7.01614 3.30989 5.00576 3.30989 4.92463M3.30989 6.35267V4.92463M3.30989 6.35267C4.22321 6.35267 7.81265 6.35267 8.63483 6.35267M8.69004 5.98602C8.69004 5.98602 8.69004 5.00576 8.69004 4.92463M8.69004 5.98602V4.92463M8.69004 5.98602L6 5.98602C5.86277 5.98602 3.43343 5.98602 3.30989 5.98602M8.69004 4.92463V1.77371M3.30989 4.92463V1.77371M3.30989 1.77371C3.30989 1.69258 3.30989 1.25162 3.30989 1.25162M8.69004 1.77371C8.69004 1.73749 8.69004 1.25162 8.69004 1.25162H5.96289H3.30989V1.77371M8.69004 1.25162V1.77371M8.63483 6.16996H3.30989M2.74159 10.8638C2.74159 11.1232 2.55813 11.3335 2.32561 11.3335H1.1091C0.876585 11.3335 0.620598 11.1232 0.620598 10.8638V9.68466C0.620598 9.42525 0.876585 9.1414 1.1091 9.1414H2.26997C2.50249 9.1414 2.74159 9.37019 2.74159 9.6296V10.8638ZM2.74159 5.60826C2.74159 5.86767 2.50249 6.078 2.26997 6.078H1.1091C0.876585 6.078 0.620598 5.86767 0.620598 5.60826V4.41545C0.620598 4.15604 0.876585 3.88251 1.1091 3.88251L2.26997 3.8859C2.50249 3.8859 2.74159 4.0962 2.74159 4.35564V5.60826ZM2.77078 2.97401C2.77078 3.23342 2.53168 3.44374 2.29915 3.44374H1.13829C0.90577 3.44374 0.649783 3.23342 0.649783 2.97401V1.74179C0.649783 1.48238 0.90577 1.25162 1.13829 1.25162H2.29915C2.53168 1.25162 2.77078 1.46194 2.77078 1.72135V2.97401ZM2.74159 8.24469C2.74159 8.5041 2.55813 8.71442 2.32561 8.71442H1.1091C0.876585 8.71442 0.620598 8.5041 0.620598 8.24469V7.06556C0.620598 6.80615 0.876585 6.5223 1.1091 6.5223H2.26997C2.50249 6.5223 2.74159 6.75109 2.74159 7.0105V8.24469ZM11.4269 10.8957C11.4269 11.1551 11.2435 11.3654 11.0109 11.3654H9.79444C9.56192 11.3654 9.30593 11.1551 9.30593 10.8957V9.71657C9.30593 9.45716 9.56192 9.17332 9.79444 9.17332H10.9553C11.1878 9.17332 11.4269 9.40211 11.4269 9.66152V10.8957ZM11.4269 5.64018C11.4269 5.89959 11.1878 6.10992 10.9553 6.10992H9.79444C9.56192 6.10992 9.30593 5.89959 9.30593 5.64018V4.44737C9.30593 4.18796 9.56192 3.91443 9.79444 3.91443L10.9553 3.91781C11.1878 3.91781 11.4269 4.12812 11.4269 4.38755V5.64018ZM11.4561 3.00592C11.4561 3.26533 11.217 3.47566 10.9845 3.47566H9.82362C9.5911 3.47566 9.33511 3.26533 9.33511 3.00592V1.75327C9.33511 1.49386 9.5911 1.28353 9.82362 1.28353H10.9845C11.217 1.28353 11.4561 1.49386 11.4561 1.75327V3.00592ZM11.4269 8.2766C11.4269 8.53601 11.2435 8.74634 11.0109 8.74634H9.79444C9.56192 8.74634 9.30593 8.53601 9.30593 8.2766V7.09747C9.30593 6.83806 9.56192 6.55422 9.79444 6.55422H10.9553C11.1878 6.55422 11.4269 6.78301 11.4269 7.04242V8.2766Z" stroke="#B2B2B2" stroke-width="0.2"/>
</svg>
