<svg width="12" height="12" viewBox="0 0 12 12" fill="none" xmlns="http://www.w3.org/2000/svg">
<g clip-path="url(#clip0_11_4777)">
<path d="M5.62069 1.66748C5.20079 1.66748 4.83877 1.90815 4.67236 2.25527H6.56905C6.40264 1.90815 6.04062 1.66748 5.62069 1.66748Z" fill="#B2B2B2"/>
<path d="M5.09942 2.13639C5.0605 2.12154 5.02637 2.10195 4.99344 2.08119C4.96068 2.06025 4.92977 2.03754 4.90032 2.01333C4.87082 1.98921 4.84317 1.96323 4.81599 1.93681L4.73397 1.85796L4.40636 1.54221C4.29713 1.437 4.18876 1.33095 4.08021 1.22508C3.97177 1.11904 3.86278 1.01358 3.75484 0.90708L3.43106 0.58758L3.10894 0.266428C2.89507 0.0514475 2.68135 -0.163674 2.47125 -0.382381C2.4233 -0.432303 2.42605 -0.510572 2.47742 -0.557213C2.52605 -0.601381 2.60122 -0.600959 2.64976 -0.55842C2.87771 -0.357326 3.102 -0.152635 3.32615 0.0521741L3.66107 0.360694L3.99432 0.670889C4.10541 0.774272 4.21542 0.878733 4.32604 0.982596C4.43647 1.08664 4.5471 1.19046 4.6569 1.29514L4.98632 1.60908L5.06859 1.68768C5.09614 1.71373 5.12326 1.74021 5.14848 1.76856C5.17381 1.79685 5.19763 1.82658 5.21963 1.85812C5.24145 1.88983 5.26206 1.92273 5.27792 1.96035C5.30684 2.02906 5.27302 2.10754 5.20236 2.13567C5.16816 2.14927 5.13133 2.14848 5.09942 2.13639Z" fill="#B2B2B2"/>
<path d="M5.96292 1.96003C5.97878 1.92241 5.99935 1.88951 6.02121 1.85779C6.0432 1.82626 6.06702 1.79653 6.09232 1.76824C6.11756 1.73989 6.1447 1.71341 6.17225 1.68736L6.25452 1.60876L6.58394 1.29481C6.69374 1.19014 6.80435 1.08631 6.9148 0.982275C7.02541 0.878411 7.13543 0.773951 7.24648 0.670568L7.57973 0.360372L7.91465 0.0518529C8.13884 -0.152956 8.36313 -0.357647 8.59108 -0.558741C8.64314 -0.604643 8.72358 -0.600823 8.77082 -0.550245C8.81553 -0.502339 8.81402 -0.42926 8.76955 -0.382702C8.55948 -0.163995 8.34576 0.0511263 8.1319 0.266107L7.80978 0.587259L7.48599 0.906759C7.37805 1.01326 7.26906 1.11872 7.16063 1.22476C7.05208 1.33063 6.9437 1.43668 6.83447 1.54189L6.50686 1.85764L6.42484 1.93649C6.39766 1.96291 6.37001 1.98889 6.34051 2.01301C6.31107 2.03722 6.28012 2.05993 6.24738 2.08087C6.21446 2.10163 6.1803 2.12122 6.14139 2.13607C6.07032 2.1632 5.9901 2.12918 5.96217 2.06008C5.94869 2.02666 5.95002 1.99087 5.96292 1.96003Z" fill="#B2B2B2"/>
<path d="M2.29102 10.4434V10.925C2.29102 11.0696 2.46844 11.1446 2.57712 11.0459L3.06543 10.6023C3.12808 10.5454 3.08666 10.4434 3.00095 10.4434H2.29102Z" fill="#B2B2B2"/>
<path d="M9.70937 10.4434V10.925C9.70937 11.0696 9.53194 11.1446 9.42327 11.0459L8.93495 10.6023C8.87231 10.5454 8.91373 10.4434 8.99944 10.4434H9.70937Z" fill="#B2B2B2"/>
<path d="M11.0877 8.18641H10.1451C10.0791 8.18641 10.0257 8.13443 10.0257 8.07035C10.0257 8.00623 10.0791 7.95427 10.1451 7.95427H11.0877C11.1536 7.95427 11.2071 8.00623 11.2071 8.07035C11.2071 8.13443 11.1536 8.18641 11.0877 8.18641ZM11.0877 8.63516H10.1451C10.0791 8.63516 10.0257 8.58316 10.0257 8.51908C10.0257 8.45497 10.0791 8.40302 10.1451 8.40302H11.0877C11.1536 8.40302 11.2071 8.45497 11.2071 8.51908C11.2071 8.58316 11.1536 8.63516 11.0877 8.63516ZM11.0877 9.08387H10.1451C10.0791 9.08387 10.0257 9.03191 10.0257 8.96779C10.0257 8.90371 10.0791 8.85172 10.1451 8.85172H11.0877C11.1536 8.85172 11.2071 8.90371 11.2071 8.96779C11.2071 9.03191 11.1536 9.08387 11.0877 9.08387ZM9.68178 8.54422C9.68178 8.98477 9.31446 9.34193 8.86128 9.34193H1.82555C1.37238 9.34193 1.00504 8.98477 1.00504 8.54422V4.1206C1.00504 3.68006 1.37238 3.32291 1.82555 3.32291H8.86128C9.31446 3.32291 9.68178 3.68006 9.68178 4.1206V8.54422ZM10.6164 6.7222C10.8407 6.7222 11.0226 6.89902 11.0226 7.11716C11.0226 7.33531 10.8407 7.51214 10.6164 7.51214C10.392 7.51214 10.2101 7.33531 10.2101 7.11716C10.2101 6.89902 10.392 6.7222 10.6164 6.7222ZM10.6164 5.26468C10.8407 5.26468 11.0226 5.44154 11.0226 5.65966C11.0226 5.87779 10.8407 6.05464 10.6164 6.05464C10.392 6.05464 10.2101 5.87779 10.2101 5.65966C10.2101 5.44154 10.392 5.26468 10.6164 5.26468ZM10.6164 3.8072C10.8407 3.8072 11.0226 3.98402 11.0226 4.20214C11.0226 4.42027 10.8407 4.59712 10.6164 4.59712C10.392 4.59712 10.2101 4.42027 10.2101 4.20214C10.2101 3.98402 10.392 3.8072 10.6164 3.8072ZM10.012 2.38379H1.98761C1.05977 2.38379 0.307617 3.11504 0.307617 4.01708V8.64775C0.307617 9.54979 1.05977 10.281 1.98757 10.281H10.012C10.9399 10.281 11.692 9.54979 11.692 8.64775V4.01708C11.692 3.11504 10.9399 2.38379 10.012 2.38379Z" fill="#B2B2B2"/>
</g>
<defs>
<clipPath id="clip0_11_4777">
<rect width="12" height="12" fill="white"/>
</clipPath>
</defs>
</svg>
