<svg width="12" height="12" viewBox="0 0 12 12" fill="none" xmlns="http://www.w3.org/2000/svg">
<path fill-rule="evenodd" clip-rule="evenodd" d="M12.1016 -0.289252H12.238C12.4964 -0.289252 12.7058 -0.0738575 12.7058 0.191808V11.4436C12.7058 11.7093 12.4964 11.9247 12.2381 11.9247H12.1017C12.0747 11.9247 12.0386 11.9368 12.0034 11.9486C11.9403 11.9698 11.88 11.9901 11.88 11.9379C11.88 11.8567 11.6785 11.9379 11.6785 11.9379H11.1315H10.3685C10.2622 11.9379 9.99989 11.9247 9.99989 11.9247C9.99989 11.9247 9.86723 11.8416 9.86723 11.9247C9.86723 11.9775 9.84075 11.9685 9.80072 11.955C9.77776 11.9472 9.75034 11.9379 9.7209 11.9379H2.36137C2.32945 11.9379 2.2999 11.9509 2.27584 11.9615C2.23902 11.9777 2.21504 11.9882 2.21504 11.9379H2.09075C2.09075 11.9007 2.08541 11.907 2.07372 11.9207C2.05933 11.9376 2.03534 11.9658 1.99989 11.9379C1.95398 11.9019 1.94069 11.9081 1.91628 11.9193C1.89897 11.9273 1.87608 11.9379 1.83202 11.9379H0.622361H0.320044H0.132896C0.132896 12.0269 0.104738 12.0034 0.0658108 11.9709C0.0403667 11.9497 0.0103217 11.9247 -0.0194679 11.9247H-0.155852C-0.414154 11.9247 -0.623535 11.7093 -0.623535 11.4436V0.191808C-0.623535 -0.0738575 -0.414154 -0.289252 -0.155852 -0.289252H-0.0191811H0.117203H0.467475H0.71292H1.5302H1.98154H2.29956H2.43609H2.57247H9.50999H9.64635L9.84755 -0.289272L9.99989 -0.289252L10.3944 -0.289272L11.3906 -0.289252H11.8513H12.1016ZM2.36137 11.2477C2.61964 11.2477 2.82343 11.0323 2.82343 10.7666V9.50265C2.82343 9.23699 2.55784 9.00268 2.29956 9.00268H1.0101C0.751819 9.00268 0.467475 9.29337 0.467475 9.55904V10.7666C0.467475 11.0323 0.751819 11.2477 1.0101 11.2477H2.36137ZM2.29956 5.86543C2.55784 5.86543 2.82343 5.65003 2.82343 5.38437V4.10154C2.82343 3.83585 2.55784 3.62048 2.29956 3.62048L1.0101 3.61701C0.751819 3.61701 0.467475 3.89714 0.467475 4.1628V5.38437C0.467475 5.65003 0.751819 5.86543 1.0101 5.86543H2.29956ZM2.33198 3.16766C2.59025 3.16766 2.85584 2.95227 2.85584 2.6866V1.40375C2.85584 1.13809 2.59025 0.922692 2.33198 0.922692H1.04251C0.784237 0.922692 0.499893 1.15902 0.499893 1.42468V2.6866C0.499893 2.95227 0.784237 3.16766 1.04251 3.16766H2.33198ZM9.02916 11.2477V10.2374V6.8768V5.97934V4.65157V1.42468V0.890007H5.9999H3.05302V1.42468V4.65157V5.97934V6.8768V10.2374V11.2477H6.0411H9.02916ZM2.36137 8.56541C2.61964 8.56541 2.82343 8.35002 2.82343 8.08435V6.82041C2.82343 6.55475 2.55784 6.32044 2.29956 6.32044H1.0101C0.751819 6.32044 0.467475 6.61113 0.467475 6.8768V8.08435C0.467475 8.35002 0.751819 8.56541 1.0101 8.56541H2.36137ZM11.6785 2.6866C11.6785 2.95227 11.4129 3.16766 11.1546 3.16766H9.86518C9.6069 3.16766 9.32255 2.95227 9.32255 2.6866V1.42468C9.32255 1.15902 9.6069 0.922692 9.86518 0.922692H11.1546C11.4129 0.922692 11.6785 1.13809 11.6785 1.40375V2.6866ZM11.1222 5.86543C11.3805 5.86543 11.6461 5.65003 11.6461 5.38437V4.10154C11.6461 3.83585 11.3805 3.62048 11.1222 3.62048L9.83276 3.61701C9.57448 3.61701 9.29014 3.89714 9.29014 4.1628V5.38437C9.29014 5.65003 9.57448 5.86543 9.83276 5.86543H11.1222ZM11.6461 8.08435C11.6461 8.35002 11.4423 8.56541 11.184 8.56541H9.83276C9.57448 8.56541 9.29014 8.35002 9.29014 8.08435V6.8768C9.29014 6.61113 9.57448 6.32044 9.83276 6.32044H11.1222C11.3805 6.32044 11.6461 6.55475 11.6461 6.82041V8.08435ZM11.184 11.2477C11.4423 11.2477 11.6461 11.0323 11.6461 10.7666V9.50265C11.6461 9.23699 11.3805 9.00268 11.1222 9.00268H9.83276C9.57448 9.00268 9.29014 9.29337 9.29014 9.55904V10.7666C9.29014 11.0323 9.57448 11.2477 9.83276 11.2477H11.184Z" fill="white"/>
<path d="M12.238 -0.289252C12.238 -0.289252 12.177 -0.289252 12.1016 -0.289252M11.1315 11.9379C11.3897 11.9379 11.6785 11.9379 11.6785 11.9379C11.6785 11.9379 11.88 11.8567 11.88 11.9379C11.88 11.9901 11.9403 11.9698 12.0034 11.9486C12.0386 11.9368 12.0747 11.9247 12.1017 11.9247H12.2381C12.4964 11.9247 12.7058 11.7093 12.7058 11.4436V0.191808C12.7058 -0.0738575 12.4964 -0.289252 12.238 -0.289252M12.238 -0.289252H12.1016M12.1016 -0.289252C12.0263 -0.289252 12.1016 -0.370536 12.1016 -0.289252ZM12.1016 -0.289252H11.8513M11.8513 -0.289252C11.8513 -0.289252 11.6489 -0.289252 11.3906 -0.289252M9.99989 -0.289252C9.99989 -0.289252 10.1361 -0.289272 10.3944 -0.289272L11.3906 -0.289252H11.8513M9.64635 -0.289252L9.84755 -0.289272L9.99989 -0.289252L10.3944 -0.289272M9.84755 -0.289272C9.84755 -0.289272 9.72171 -0.289252 9.64635 -0.289252M9.64635 -0.289252H9.50999H2.57247M2.57247 -0.289252C2.57247 -0.289252 2.51145 -0.289252 2.43609 -0.289252M2.57247 -0.289252H2.43609M2.43609 -0.289252C2.36072 -0.289252 2.29956 -0.289252 2.29956 -0.289252M2.43609 -0.289252H2.29956M2.29956 -0.289252H1.98154M1.98154 -0.289252C1.98154 -0.289252 1.78848 -0.289252 1.5302 -0.289252M1.98154 -0.289252H1.5302M1.5302 -0.289252H0.71292M0.71292 -0.289252C0.454642 -0.289252 0.467475 -0.289252 0.467475 -0.289252M0.71292 -0.289252H0.467475M0.467475 -0.289252H0.117203M0.117203 -0.289252C0.117203 -0.289252 0.0561839 -0.289252 -0.0191811 -0.289252M0.117203 -0.289252H-0.0191811M-0.0191811 -0.289252H-0.155852C-0.414154 -0.289252 -0.623535 -0.0738575 -0.623535 0.191808V11.4436C-0.623535 11.7093 -0.414154 11.9247 -0.155852 11.9247M-0.155852 11.9247C-0.155852 11.9247 -0.0948329 11.9247 -0.0194679 11.9247M-0.155852 11.9247H-0.0194679M-0.0194679 11.9247C0.0103217 11.9247 0.0403667 11.9497 0.0658108 11.9709C0.104738 12.0034 0.132896 12.0269 0.132896 11.9379H0.320044M0.320044 11.9379C0.320044 11.9379 0.364083 11.9379 0.622361 11.9379M0.320044 11.9379H0.622361M0.622361 11.9379H1.83202C1.87608 11.9379 1.89897 11.9273 1.91628 11.9193C1.94069 11.9081 1.95398 11.9019 1.99989 11.9379C2.03534 11.9658 2.05933 11.9376 2.07372 11.9207C2.08541 11.907 2.09075 11.9007 2.09075 11.9379H2.21504C2.21504 11.9882 2.23902 11.9777 2.27584 11.9615C2.2999 11.9509 2.32945 11.9379 2.36137 11.9379H9.7209C9.75034 11.9379 9.77776 11.9472 9.80072 11.955C9.84075 11.9685 9.86723 11.9775 9.86723 11.9247C9.86723 11.8416 9.99989 11.9247 9.99989 11.9247C9.99989 11.9247 10.2622 11.9379 10.3685 11.9379H11.1315M11.1315 11.9379H11.6785M9.02916 10.2374C9.02916 10.3205 9.02916 11.2477 9.02916 11.2477M9.02916 10.2374V6.8768V5.97934M3.05302 10.2374C3.05302 10.3205 3.05302 11.2477 3.05302 11.2477H6.0411H9.02916V10.2374M3.05302 11.2477V10.2374M3.05302 10.2374V6.8768M3.05302 6.8768C3.05302 6.79372 3.05302 5.97934 3.05302 5.97934M3.05302 6.8768V5.97934M3.05302 5.97934C3.05302 6.6588 3.05302 4.73465 3.05302 4.65157M3.05302 5.97934H6.0411H9.02916M3.05302 5.97934V4.65157M9.02916 5.97934C9.02916 5.97934 9.02916 4.73465 9.02916 4.65157M9.02916 5.97934V4.65157M9.02916 4.65157V1.42468M3.05302 4.65157V1.42468M3.05302 1.42468C3.05302 1.34161 3.05302 0.890007 3.05302 0.890007M9.02916 1.42468C9.02916 1.38759 9.02916 0.890007 9.02916 0.890007H5.9999H3.05302V1.42468M9.02916 0.890007V1.42468M2.82343 10.7666C2.82343 11.0323 2.61964 11.2477 2.36137 11.2477H1.0101C0.751819 11.2477 0.467475 11.0323 0.467475 10.7666V9.55904C0.467475 9.29337 0.751819 9.00268 1.0101 9.00268H2.29956C2.55784 9.00268 2.82343 9.23699 2.82343 9.50265V10.7666ZM2.82343 5.38437C2.82343 5.65003 2.55784 5.86543 2.29956 5.86543H1.0101C0.751819 5.86543 0.467475 5.65003 0.467475 5.38437V4.1628C0.467475 3.89714 0.751819 3.61701 1.0101 3.61701L2.29956 3.62048C2.55784 3.62048 2.82343 3.83585 2.82343 4.10154V5.38437ZM2.85584 2.6866C2.85584 2.95227 2.59025 3.16766 2.33198 3.16766H1.04251C0.784237 3.16766 0.499893 2.95227 0.499893 2.6866V1.42468C0.499893 1.15902 0.784237 0.922692 1.04251 0.922692H2.33198C2.59025 0.922692 2.85584 1.13809 2.85584 1.40375V2.6866ZM2.82343 8.08435C2.82343 8.35002 2.61964 8.56541 2.36137 8.56541H1.0101C0.751819 8.56541 0.467475 8.35002 0.467475 8.08435V6.8768C0.467475 6.61113 0.751819 6.32044 1.0101 6.32044H2.29956C2.55784 6.32044 2.82343 6.55475 2.82343 6.82041V8.08435ZM11.6461 10.7666C11.6461 11.0323 11.4423 11.2477 11.184 11.2477H9.83276C9.57448 11.2477 9.29014 11.0323 9.29014 10.7666V9.55904C9.29014 9.29337 9.57448 9.00268 9.83276 9.00268H11.1222C11.3805 9.00268 11.6461 9.23699 11.6461 9.50265V10.7666ZM11.6461 5.38437C11.6461 5.65003 11.3805 5.86543 11.1222 5.86543H9.83276C9.57448 5.86543 9.29014 5.65003 9.29014 5.38437V4.1628C9.29014 3.89714 9.57448 3.61701 9.83276 3.61701L11.1222 3.62048C11.3805 3.62048 11.6461 3.83585 11.6461 4.10154V5.38437ZM11.6785 2.6866C11.6785 2.95227 11.4129 3.16766 11.1546 3.16766H9.86518C9.6069 3.16766 9.32255 2.95227 9.32255 2.6866V1.42468C9.32255 1.15902 9.6069 0.922692 9.86518 0.922692H11.1546C11.4129 0.922692 11.6785 1.13809 11.6785 1.40375V2.6866ZM11.6461 8.08435C11.6461 8.35002 11.4423 8.56541 11.184 8.56541H9.83276C9.57448 8.56541 9.29014 8.35002 9.29014 8.08435V6.8768C9.29014 6.61113 9.57448 6.32044 9.83276 6.32044H11.1222C11.3805 6.32044 11.6461 6.55475 11.6461 6.82041V8.08435Z" stroke="white"/>
</svg>
